<svg height="512" viewBox="0 0 512 512" width="512" xmlns="http://www.w3.org/2000/svg"><g id="Flat"><path d="m24 136v224a8 8 0 0 0 8 8h448a8 8 0 0 0 8-8v-79.368a24 24 0 0 0 -15.573-22.472l-48.427-18.16-47.611-108.826a32 32 0 0 0 -29.317-19.174h-299.072a24 24 0 0 0 -24 24z" fill="#ffb431"/><path d="m32 328h448a8 8 0 0 1 8 8v32a0 0 0 0 1 0 0h-464a0 0 0 0 1 0 0v-32a8 8 0 0 1 8-8z" fill="#415e89" transform="matrix(-1 0 0 -1 512 696)"/><path d="m312 152v80a8 8 0 0 0 8 8h104l-42-96h-62a8 8 0 0 0 -8 8z" fill="#4db6e4"/><path d="m448 296h32a8 8 0 0 1 8 8v16a8 8 0 0 1 -8 8h-32a0 0 0 0 1 0 0v-32a0 0 0 0 1 0 0z" fill="#dfdfdd" transform="matrix(-1 0 0 -1 936 624)"/><path d="m48 136h240v16h-240z" fill="#f9a40f"/><path d="m48 232h240v16h-240z" fill="#f9a40f"/><path d="m352 144h16v96h-16z" fill="#3ba5d3"/><circle cx="376" cy="352" fill="#34507b" r="48"/><circle cx="120" cy="352" fill="#34507b" r="48"/><circle cx="376" cy="352" fill="#dfdfdd" r="16"/><circle cx="120" cy="352" fill="#dfdfdd" r="16"/><path d="m312 264h32v16h-32z" fill="#ffc261"/><path d="m256 264h32v16h-32z" fill="#ffc261"/><path d="m32 296h24a0 0 0 0 1 0 0v32a0 0 0 0 1 0 0h-24a8 8 0 0 1 -8-8v-16a8 8 0 0 1 8-8z" fill="#d65246" transform="matrix(-1 0 0 -1 80 624)"/></g></svg>