<svg height="512pt" viewBox="0 -52 512.001 512" width="512pt" xmlns="http://www.w3.org/2000/svg"><path d="m152.109375 234.957031c0-32.800781-19.941406-70.902343-44.542969-85.105469-11.5625-6.675781-22.09375-6.882812-30.007812-1.824218l-37.089844 20.796875.007812.003906c-9.042968 5.648437-14.730468 18.105469-14.730468 35.613281 0 32.800782 19.945312 70.90625 44.542968 85.109375 10.804688 6.234375 20.707032 6.824219 28.417969 2.75l38.535157-21.640625h-.015626c9.128907-5.601562 14.882813-18.09375 14.882813-35.703125zm0 0" fill="#2b5d99"/><path d="m348.648438 347.597656c0-32.800781-19.941407-70.90625-44.542969-85.109375-11.558594-6.671875-22.089844-6.878906-30.007813-1.820312v-.003907l-37.085937 20.800782.007812.003906c-9.042969 5.648438-14.730469 18.101562-14.730469 35.613281 0 32.800781 19.941407 70.90625 44.542969 85.109375 10.800781 6.234375 20.703125 6.824219 28.414063 2.746094v.003906l38.535156-21.640625h-.015625c9.132813-5.605469 14.882813-18.09375 14.882813-35.703125zm0 0" fill="#2b5d99"/><path d="m484.03125 201.085938-60.277344-39.992188-14.640625-77.753906c-2.484375-13.195313-10.601562-24.648438-22.230469-31.363282l-67.546874-38.066406c-2.976563-1.71875-6.332032-1.441406-8.894532.132813l-71.488281 41.28125-94.113281-54.335938c-2.367188-1.367187-5.019532-1.234375-7.125-.101562l-.113282-.0625s-134.117187 77.570312-134.449218 77.796875c-1.863282 1.292968-3.152344 3.425781-3.152344 6.011718v80.953126c0 10.664062 5.691406 20.519531 14.925781 25.851562l328.957031 188.992188c3.707032 2.140624 7.855469 1.925781 11.148438.144531l.007812.011719.210938-.121094c.042969-.027344.089844-.050782.132812-.078125l133.355469-77.019531-.011719-.015626c3.554688-1.859374 6.152344-5.535156 6.152344-10.121093v-65.839844c.003906-9.859375-3.898437-19.316406-10.847656-26.304687zm0 0" fill="#ea2642"/><path d="m10.992188 78.285156 161.453124 93.214844v-72.765625c0-3.382813 1.855469-6.121094 4.4375-7.574219-.003906 0-.003906.003906-.007812.003906l62.074219-35.839843-94.109375-54.335938c-2.371094-1.367187-5.019532-1.234375-7.125-.101562l-.113282-.0625s-121.335937 70.175781-133.464843 77.222656c2.0625-1 4.589843-1.074219 6.855469.238281zm0 0" fill="#ff4d73"/><path d="m172.445312 98.734375c0-3.382813 1.855469-6.121094 4.4375-7.574219-.003906 0-.003906.003906-.007812.003906l46.09375-26.613281-82.050781-47.371093-105.257813 60.769531 136.789063 78.976562v-58.191406zm0 0" fill="#bf0025"/><path d="m289.910156 238.386719-14.640625-77.753907c-2.484375-13.195312-10.601562-24.648437-22.230469-31.359374l-67.546874-38.070313c-5.796876-3.347656-13.046876.839844-13.046876 7.535156v72.761719l-161.453124-93.214844c-4.882813-2.820312-10.992188.703125-10.992188 6.347656v80.953126c0 10.664062 5.691406 20.519531 14.925781 25.851562l328.957031 188.996094c7.625 4.398437 17.152344-1.101563 17.152344-9.90625v-65.839844c0-9.859375-3.898437-19.316406-10.847656-26.308594zm0 0" fill="#bf0025"/><path d="m311.375 368.515625c0 32.800781-19.941406 47.878906-44.542969 33.675781-24.597656-14.203125-44.542969-52.308594-44.542969-85.109375s19.941407-47.875 44.542969-33.671875c24.601563 14.203125 44.542969 52.304688 44.542969 85.105469zm0 0" fill="#162f4d"/><path d="m295.246094 359.207031c0 20.925781-12.71875 30.542969-28.414063 21.480469-15.695312-9.058594-28.417969-33.367188-28.417969-54.292969s12.722657-30.542969 28.417969-21.480469c15.695313 9.058594 28.414063 33.367188 28.414063 54.292969zm0 0" fill="#d6e5e5"/><path d="m283.707031 352.542969c0 12.425781-7.554687 18.136719-16.875 12.753906-9.320312-5.378906-16.875-19.8125-16.875-32.238281 0-12.425782 7.554688-18.136719 16.875-12.757813 9.320313 5.382813 16.875 19.816407 16.875 32.242188zm0 0" fill="#bf0025"/><path d="m114.832031 255.878906c0 32.796875-19.941406 47.875-44.542969 33.671875-24.597656-14.203125-44.542968-52.308593-44.542968-85.109375 0-32.796875 19.945312-47.875 44.542968-33.671875 24.601563 14.203125 44.542969 52.308594 44.542969 85.109375zm0 0" fill="#162f4d"/><path d="m98.707031 246.566406c0 20.925782-12.722656 30.542969-28.417969 21.484375-15.691406-9.0625-28.414062-33.371093-28.414062-54.296875 0-20.925781 12.722656-30.539062 28.414062-21.480468 15.695313 9.058593 28.417969 33.367187 28.417969 54.292968zm0 0" fill="#d6e5e5"/><path d="m87.164062 239.902344c0 12.425781-7.554687 18.136718-16.875 12.757812-9.316406-5.382812-16.871093-19.816406-16.871093-32.242187s7.554687-18.136719 16.871093-12.753907c9.320313 5.378907 16.875 19.8125 16.875 32.238282zm0 0" fill="#bf0025"/><path d="m289.910156 238.386719 133.84375-77.292969 60.277344 39.992188-133.847656 77.292968zm0 0" fill="#ff4d73"/><path d="m285.46875 154.746094 14.535156 77.8125 114.597656-66.179688-15.777343-77.078125zm0 0" fill="#2c92bf"/><path d="m268.015625 143.167969 133.851563-77.28125c-3.847657-5.632813-8.9375-10.417969-14.984376-13.910157l-67.546874-38.066406c-2.96875-1.714844-6.308594-1.441406-8.867188.117188l-133.597656 77.136718c2.527344-1.425781 5.75-1.617187 8.621094.039063l67.546874 38.070313c6.042969 3.488281 11.125 8.265624 14.976563 13.894531zm0 0" fill="#ff4d73"/><path d="m172.445312 98.734375c0-1.8125.546876-3.433594 1.441407-4.78125l-32.96875-19.03125-55.253907 31.898437 86.78125 50.105469zm0 0" fill="#8f001c"/><path d="m190.957031 182.140625 87.25 50.417969-11.671875-64.996094c-1.519531-8.46875-6.695312-15.839844-14.148437-20.148438l-61.425781-35.503906v70.230469zm0 0" fill="#2c92bf"/><path d="m140.917969 74.917969v-57.738281l-105.257813 60.769531 50.003906 28.871093zm0 0" fill="#ea2642"/><path d="m490.414062 269.214844v-40.691406c0-2.976563-.328124-5.921876-.945312-8.789063l-123.542969 71.304687c.617188 2.867188.945313 5.808594.945313 8.789063v40.714844zm0 0" fill="#b6c5ce"/><path d="m393.417969 302.339844c0 7.945312-4.832031 17.175781-10.789063 20.617187-5.960937 3.441407-10.792968-.210937-10.792968-8.15625 0-7.945312 4.832031-17.175781 10.792968-20.617187 5.957032-3.441406 10.789063.210937 10.789063 8.15625zm0 0" fill="#fff"/><path d="m487.347656 246.867188c0 7.945312-4.828125 17.175781-10.789062 20.617187-5.957032 3.441406-10.789063-.210937-10.789063-8.160156 0-7.945313 4.832031-17.175781 10.789063-20.613281 5.960937-3.441407 10.789062.210937 10.789062 8.15625zm0 0" fill="#fff"/><path d="m512 277.472656-9.355469-5.324218-155.195312 89.605468v14.925782c0 4.246093 2.421875 7.640624 5.726562 9.339843l-.015625.011719 9.796875 5.523438c2.914063 1.335937 6.441407 1.382812 9.617188-.449219l126.394531-72.972657c8.0625-4.65625 13.03125-13.261718 13.03125-22.570312zm0 0" fill="#162f4d"/><path d="m356.800781 367.074219 155.199219-89.601563v18.089844c0 9.308594-4.96875 17.914062-13.03125 22.570312l-126.398438 72.972657c-7.007812 4.046875-15.769531-1.011719-15.769531-9.101563zm0 0" fill="#2b5d99"/><path d="m356.800781 367.074219-9.355469-5.320313 155.199219-89.605468 9.355469 5.324218zm0 0" fill="#2c92bf"/><g fill="#83b2c6"><path d="m268.785156 180.097656-2.25-12.535156c-1.519531-8.472656-6.695312-15.84375-14.148437-20.148438l-15.003907-8.671874-46.421874 34.632812v8.765625l42.3125 24.453125zm0 0"/><path d="m300.003906 232.558594 54.816406-31.65625 48.125-91.46875-4.121093-20.132813-42.722657 24.664063-57.75 109.765625zm0 0"/></g></svg>